<svg width="27" height="27" viewBox="0 0 27 27" fill="none" xmlns="http://www.w3.org/2000/svg">
<path d="M26.7311 8.0999C26.7311 8.0999 26.4674 6.23838 25.6553 5.421C24.627 4.34521 23.4773 4.33994 22.95 4.27666C19.1742 4.00244 13.5053 4.00244 13.5053 4.00244H13.4947C13.4947 4.00244 7.82578 4.00244 4.05 4.27666C3.52266 4.33994 2.37305 4.34521 1.34473 5.421C0.532617 6.23838 0.274219 8.0999 0.274219 8.0999C0.274219 8.0999 0 10.2884 0 12.4716V14.5177C0 16.7009 0.268945 18.8894 0.268945 18.8894C0.268945 18.8894 0.532617 20.7509 1.33945 21.5683C2.36777 22.644 3.71777 22.6071 4.31895 22.7231C6.48105 22.9288 13.5 22.9921 13.5 22.9921C13.5 22.9921 19.1742 22.9815 22.95 22.7126C23.4773 22.6493 24.627 22.644 25.6553 21.5683C26.4674 20.7509 26.7311 18.8894 26.7311 18.8894C26.7311 18.8894 27 16.7062 27 14.5177V12.4716C27 10.2884 26.7311 8.0999 26.7311 8.0999ZM10.7104 17.0015V9.41299L18.0035 13.2204L10.7104 17.0015Z" fill="white"/>
</svg>
