<svg width="28" height="27" viewBox="0 0 28 27" fill="none" xmlns="http://www.w3.org/2000/svg">
<g clip-path="url(#clip0_2168_88427)">
<path d="M14 2.43105C17.7406 2.43105 18.1836 2.44687 19.6547 2.51016C21.0219 2.56816 21.7602 2.78965 22.2523 2.97422C22.9031 3.2168 23.3734 3.51211 23.8602 3.98145C24.3523 4.45605 24.6531 4.9043 24.9047 5.53184C25.0961 6.00645 25.3258 6.72363 25.3859 8.03672C25.4516 9.46055 25.468 9.8877 25.468 13.4895C25.468 17.0965 25.4516 17.5236 25.3859 18.9422C25.3258 20.2605 25.0961 20.9725 24.9047 21.4471C24.6531 22.0746 24.3469 22.5281 23.8602 22.9975C23.368 23.4721 22.9031 23.7621 22.2523 24.0047C21.7602 24.1893 21.0164 24.4107 19.6547 24.4688C18.1781 24.532 17.7352 24.5479 14 24.5479C10.2594 24.5479 9.81641 24.532 8.34531 24.4688C6.97813 24.4107 6.23984 24.1893 5.74766 24.0047C5.09688 23.7621 4.62656 23.4668 4.13984 22.9975C3.64766 22.5229 3.34687 22.0746 3.09531 21.4471C2.90391 20.9725 2.67422 20.2553 2.61406 18.9422C2.54844 17.5184 2.53203 17.0912 2.53203 13.4895C2.53203 9.88242 2.54844 9.45527 2.61406 8.03672C2.67422 6.71836 2.90391 6.00645 3.09531 5.53184C3.34687 4.9043 3.65313 4.45078 4.13984 3.98145C4.63203 3.50684 5.09688 3.2168 5.74766 2.97422C6.23984 2.78965 6.98359 2.56816 8.34531 2.51016C9.81641 2.44687 10.2594 2.43105 14 2.43105ZM14 0C10.1992 0 9.72344 0.0158203 8.23047 0.0791016C6.74297 0.142383 5.72031 0.374414 4.83437 0.706641C3.91016 1.05469 3.12813 1.51348 2.35156 2.26758C1.56953 3.01641 1.09375 3.77051 0.732812 4.65645C0.388281 5.51602 0.147656 6.49687 0.0820313 7.93125C0.0164063 9.37617 0 9.83496 0 13.5C0 17.165 0.0164063 17.6238 0.0820313 19.0635C0.147656 20.4979 0.388281 21.484 0.732812 22.3383C1.09375 23.2295 1.56953 23.9836 2.35156 24.7324C3.12813 25.4813 3.91016 25.9453 4.82891 26.2881C5.72031 26.6203 6.7375 26.8523 8.225 26.9156C9.71797 26.9789 10.1937 26.9947 13.9945 26.9947C17.7953 26.9947 18.2711 26.9789 19.7641 26.9156C21.2516 26.8523 22.2742 26.6203 23.1602 26.2881C24.0789 25.9453 24.8609 25.4813 25.6375 24.7324C26.4141 23.9836 26.8953 23.2295 27.2508 22.3436C27.5953 21.484 27.8359 20.5031 27.9016 19.0688C27.9672 17.6291 27.9836 17.1703 27.9836 13.5053C27.9836 9.84023 27.9672 9.38145 27.9016 7.9418C27.8359 6.50742 27.5953 5.52129 27.2508 4.66699C26.9062 3.77051 26.4305 3.01641 25.6484 2.26758C24.8719 1.51875 24.0898 1.05469 23.1711 0.711914C22.2797 0.379687 21.2625 0.147656 19.775 0.084375C18.2766 0.0158203 17.8008 0 14 0Z" fill="white"/>
<path d="M14 6.56543C10.0297 6.56543 6.80859 9.67148 6.80859 13.5C6.80859 17.3285 10.0297 20.4346 14 20.4346C17.9703 20.4346 21.1914 17.3285 21.1914 13.5C21.1914 9.67148 17.9703 6.56543 14 6.56543ZM14 17.9982C11.4242 17.9982 9.33516 15.9838 9.33516 13.5C9.33516 11.0162 11.4242 9.00176 14 9.00176C16.5758 9.00176 18.6648 11.0162 18.6648 13.5C18.6648 15.9838 16.5758 17.9982 14 17.9982Z" fill="white"/>
<path d="M23.1547 6.29131C23.1547 7.1878 22.4 7.91026 21.4758 7.91026C20.5461 7.91026 19.7969 7.18252 19.7969 6.29131C19.7969 5.39483 20.5516 4.67236 21.4758 4.67236C22.4 4.67236 23.1547 5.4001 23.1547 6.29131Z" fill="white"/>
</g>
<defs>
<clipPath id="clip0_2168_88427">
<rect width="28" height="27" fill="white"/>
</clipPath>
</defs>
</svg>
